<mxfile host="app.diagrams.net" modified="2024-05-21T00:23:17.788Z" agent="Mozilla/5.0 (X11; Linux x86_64; rv:126.0) Gecko/20100101 Firefox/126.0" etag="DRHeO0vg2_TNCxQGiVKD" version="24.4.4" type="github">
  <diagram name="Page-1" id="mLlrIexJ9fZd_A2HoGhO">
    <mxGraphModel dx="989" dy="526" grid="1" gridSize="10" guides="1" tooltips="1" connect="1" arrows="1" fold="1" page="1" pageScale="1" pageWidth="850" pageHeight="1100" math="0" shadow="0">
      <root>
        <mxCell id="0" />
        <mxCell id="1" parent="0" />
        <mxCell id="cjaMEO1SCx3lNwTHjd5e-1" value="&lt;div&gt;Component&lt;/div&gt;&lt;div&gt;&amp;lt;Interface&amp;gt;&lt;br&gt;&lt;/div&gt;" style="swimlane;whiteSpace=wrap;html=1;startSize=30;" parent="1" vertex="1">
          <mxGeometry x="363" y="290" width="200" height="140" as="geometry" />
        </mxCell>
        <mxCell id="cjaMEO1SCx3lNwTHjd5e-3" value="&lt;div align=&quot;left&quot;&gt;+ describe(): String&lt;br&gt;+ getName(): String&lt;br&gt;+ getDescription(): String&lt;br&gt;+ getDammage(): Double&lt;br&gt;&lt;br&gt;&lt;/div&gt;" style="text;html=1;align=left;verticalAlign=middle;resizable=0;points=[];autosize=1;strokeColor=none;fillColor=none;" parent="cjaMEO1SCx3lNwTHjd5e-1" vertex="1">
          <mxGeometry y="30" width="160" height="90" as="geometry" />
        </mxCell>
        <mxCell id="cjaMEO1SCx3lNwTHjd5e-22" style="edgeStyle=orthogonalEdgeStyle;rounded=0;orthogonalLoop=1;jettySize=auto;html=1;dashed=1;dashPattern=8 8;" parent="1" edge="1">
          <mxGeometry relative="1" as="geometry">
            <mxPoint x="463" y="430" as="targetPoint" />
            <mxPoint x="573" y="510" as="sourcePoint" />
          </mxGeometry>
        </mxCell>
        <mxCell id="cjaMEO1SCx3lNwTHjd5e-4" value="Sword" style="swimlane;whiteSpace=wrap;html=1;" parent="1" vertex="1">
          <mxGeometry x="578" y="470" width="200" height="100" as="geometry" />
        </mxCell>
        <mxCell id="cjaMEO1SCx3lNwTHjd5e-5" value="&lt;div align=&quot;left&quot;&gt;- name: String&lt;br&gt;- description: String&lt;/div&gt;&lt;div align=&quot;left&quot;&gt;- parts: List&amp;lt;Part&amp;gt; *&lt;br&gt;- dammage: double&lt;br&gt;&lt;/div&gt;" style="text;html=1;align=left;verticalAlign=middle;resizable=0;points=[];autosize=1;strokeColor=none;fillColor=none;" parent="cjaMEO1SCx3lNwTHjd5e-4" vertex="1">
          <mxGeometry y="23" width="130" height="70" as="geometry" />
        </mxCell>
        <mxCell id="cjaMEO1SCx3lNwTHjd5e-9" style="edgeStyle=orthogonalEdgeStyle;rounded=0;orthogonalLoop=1;jettySize=auto;html=1;entryX=1;entryY=0.5;entryDx=0;entryDy=0;exitX=0.5;exitY=0;exitDx=0;exitDy=0;" parent="1" source="cjaMEO1SCx3lNwTHjd5e-8" target="cjaMEO1SCx3lNwTHjd5e-1" edge="1">
          <mxGeometry relative="1" as="geometry" />
        </mxCell>
        <mxCell id="cjaMEO1SCx3lNwTHjd5e-8" value="" style="rhombus;whiteSpace=wrap;html=1;" parent="1" vertex="1">
          <mxGeometry x="663" y="440" width="30" height="30" as="geometry" />
        </mxCell>
        <mxCell id="cjaMEO1SCx3lNwTHjd5e-17" style="edgeStyle=orthogonalEdgeStyle;rounded=0;orthogonalLoop=1;jettySize=auto;html=1;exitX=0.5;exitY=0;exitDx=0;exitDy=0;dashed=1;dashPattern=8 8;" parent="1" source="cjaMEO1SCx3lNwTHjd5e-10" edge="1">
          <mxGeometry relative="1" as="geometry">
            <mxPoint x="463" y="430" as="targetPoint" />
          </mxGeometry>
        </mxCell>
        <mxCell id="cjaMEO1SCx3lNwTHjd5e-10" value="Part" style="swimlane;whiteSpace=wrap;html=1;" parent="1" vertex="1">
          <mxGeometry x="73" y="580" width="200" height="110" as="geometry" />
        </mxCell>
        <mxCell id="cjaMEO1SCx3lNwTHjd5e-11" value="- name: String&lt;br&gt;- price: double&lt;br&gt;- description: double&lt;br&gt;- dammage: double" style="text;html=1;align=left;verticalAlign=middle;resizable=0;points=[];autosize=1;strokeColor=none;fillColor=none;" parent="cjaMEO1SCx3lNwTHjd5e-10" vertex="1">
          <mxGeometry y="24" width="130" height="70" as="geometry" />
        </mxCell>
        <mxCell id="cjaMEO1SCx3lNwTHjd5e-13" value="Sword Skill" style="swimlane;whiteSpace=wrap;html=1;" parent="1" vertex="1">
          <mxGeometry x="303" y="580" width="200" height="90" as="geometry" />
        </mxCell>
        <mxCell id="cjaMEO1SCx3lNwTHjd5e-14" value="- name: String&lt;br&gt;- effect: String&lt;br&gt;- dammage: double" style="text;html=1;align=left;verticalAlign=middle;resizable=0;points=[];autosize=1;strokeColor=none;fillColor=none;" parent="cjaMEO1SCx3lNwTHjd5e-13" vertex="1">
          <mxGeometry y="23" width="130" height="60" as="geometry" />
        </mxCell>
        <mxCell id="cjaMEO1SCx3lNwTHjd5e-21" value="" style="edgeStyle=orthogonalEdgeStyle;rounded=0;orthogonalLoop=1;jettySize=auto;html=1;dashed=1;dashPattern=8 8;" parent="1" source="cjaMEO1SCx3lNwTHjd5e-13" edge="1">
          <mxGeometry relative="1" as="geometry">
            <mxPoint x="463" y="435" as="targetPoint" />
            <mxPoint x="403" y="580" as="sourcePoint" />
          </mxGeometry>
        </mxCell>
        <mxCell id="cjaMEO1SCx3lNwTHjd5e-20" value="" style="triangle;whiteSpace=wrap;html=1;rotation=-90;" parent="1" vertex="1">
          <mxGeometry x="453" y="420" width="20" height="30" as="geometry" />
        </mxCell>
      </root>
    </mxGraphModel>
  </diagram>
</mxfile>
